<svg width="390" height="200" viewBox="0 0 390 200" fill="none" xmlns="http://www.w3.org/2000/svg">
    <path
            d="
      m-64 189
      c11.9079 -30.366 23.8158 -60.731 33.8628 -80.515
      c14.9429 -29.4242 31.71855 -41.5051 43.7137 -48.9408
      c5.6159 -3.4811 12.6761 -2.5281 16.1762 -1.608
      c3.5002 0.9202 3.8404 2.7606 4.3559 4.7822
      c0.5155 2.0216 1.196 4.1686 1.2063 21.5311
      c0.0103 17.3628 -0.6702 49.874 -0.8506 67.543
      c-0.1992 19.51 1.1908 23.246 3.2424 26.495
      c1.0284 1.628 3.4126 2.328 5.8251 1.575
      c5.9025 -1.842 16.4444 -17.39 31.0329 -38.424
      c6.3889 -9.211 9.4852 -16.126 17.0218 -35.705
      c7.5365 -19.5795 19.104 -51.7855 26.254 -69.7562
      c7.15 -17.9712 9.532 -20.7317 11.609 -22.7673
      c2.078 -2.0355 3.779 -3.26235 4.655 -0.9805
      c2.957 7.6995 -3.206 25.4627 -15.346 54.0066
      c-7.413 17.4291 -19.9655 39.8928 -26.9504 54.4989
      c-9.6098 20.096 -10.4387 28.586 -8.5675 31.226
      c3.0546 4.309 17.6349 -7.826 35.6209 -21.717
      c10.087 -7.791 21.047 -18.185 36.358 -34.9017
      c15.31 -16.7164 34.363 -39.7207 46.9 -56.1723
      c12.536 -16.4515 17.98 -25.6532 9.387  -8.4628
      c-8.594 17.1905 -31.389 61.0521 -43.472 85.4873
      c-12.083 24.436 -12.764 28.116 0.325 16.517
      c13.088 -11.6 39.966 -38.5919 56.364 -55.7173
      c16.398 -17.1254 21.501 -23.5666 8.31 -4.8007
      c-13.192 18.7659 -44.833 62.9341 -59.602 84.921
      c-14.769 21.986  -11.707 20.453 2.289 6.167
      c13.996 -14.286 38.832 -41.278 51.797 -52.269
      c12.965 -11.991 13.305 -6.163 12.119 6.041
      c-2.981 30.692 -6.711 55.396 -5.521 64.073
      c0.415 3.021 3.573 2.542 7.181 1.003
      c25.66 -10.938 48.962 -35.9 59.256 -43.192
      c14.452 -10.236 31.637 22.702 41.106 24.124
      c2.596 0.39 5.645 -1.682 20.151 -12.282
      c14.506 -10.601 40.363 -30.538 54.704 -41.269
      c14.341 -10.7304 16.383 -11.6506 18.486 -13.5281
    "
            stroke="#18181D"
            stroke-width="21"
            stroke-linecap="round"
    />
</svg>
