<svg width="126" height="125" viewBox="0 0 126 125" fill="none" xmlns="http://www.w3.org/2000/svg">
    <path d="M54.4115 16.9193C54.1812 16.9541 53.9709 16.9025 53.7805 16.7646C53.5898 16.6239 53.4768 16.437 53.4416 16.2039C53.4069 15.9735 53.4601 15.7644 53.6012 15.5764C53.7419 15.3856 53.9275 15.2728 54.1578 15.238C54.3881 15.2033 54.5987 15.2562 54.7894 15.3969C54.9798 15.5348 55.0923 15.7189 55.1271 15.9493C55.1504 16.1038 55.1325 16.2516 55.0733 16.3927C55.0166 16.5305 54.9307 16.6469 54.8157 16.7419C54.7008 16.8368 54.566 16.896 54.4115 16.9193Z" fill="white"/>
    <path d="M35.1054 20.2013L36.9787 23.6064L35.8625 24.2209L32.7076 18.486L33.7789 17.8962L34.2924 18.8296L34.3634 18.7905C34.3282 18.4142 34.4006 18.0566 34.5805 17.7176C34.7628 17.3772 35.0693 17.0885 35.4998 16.8514C35.8905 16.6363 36.2779 16.53 36.662 16.5327C37.0446 16.5328 37.4052 16.6488 37.7436 16.8809C38.082 17.1129 38.3813 17.4654 38.6414 17.9383L40.6482 21.5861L39.532 22.2006L37.5992 18.6873C37.3705 18.2716 37.0836 18.0063 36.7384 17.8916C36.3918 17.7743 36.0293 17.8198 35.651 18.0281C35.3922 18.1706 35.1928 18.3533 35.0529 18.5763C34.9154 18.7979 34.8477 19.0492 34.8499 19.3302C34.8532 19.6073 34.9384 19.8976 35.1054 20.2013Z" fill="white"/>
    <path d="M23.7932 36.4499L17.5752 33.6429L18.4334 32.6442L22.9138 34.8056L22.9555 34.7571L20.1498 30.6468L21.008 29.6482L25.4695 31.7989L25.5111 31.7504L22.7132 27.6637L23.5714 26.665L27.2815 32.3906L26.4344 33.3763L21.9848 31.3032L21.921 31.3776L24.6375 35.4674L23.7932 36.4499Z" fill="white"/>
    <path d="M18.582 48.3714C18.371 48.9476 18.0548 49.402 17.6334 49.7347C17.212 50.0674 16.7205 50.2654 16.1587 50.3288C15.597 50.3922 14.9987 50.3075 14.3638 50.0748C13.7263 49.8412 13.2123 49.5181 12.8218 49.1057C12.4313 48.6933 12.1827 48.2239 12.0759 47.6976C11.9692 47.1713 12.0213 46.6201 12.2324 46.0439C12.4434 45.4677 12.7596 45.0132 13.181 44.6806C13.6023 44.3479 14.0952 44.1503 14.6597 44.0879C15.2241 44.0255 15.825 44.1111 16.4625 44.3448C17.0974 44.5775 17.6087 44.8996 17.9965 45.311C18.3844 45.7225 18.6317 46.1914 18.7384 46.7176C18.8452 47.2439 18.793 47.7952 18.582 48.3714ZM17.5792 47.9993C17.716 47.6258 17.7306 47.2802 17.6231 46.9624C17.5156 46.6446 17.3194 46.3669 17.0343 46.1293C16.7501 45.889 16.4107 45.6965 16.0159 45.5518C15.6238 45.4081 15.2417 45.3361 14.8697 45.3359C14.4959 45.332 14.1641 45.4161 13.8742 45.5882C13.5842 45.7603 13.3709 46.0331 13.2341 46.4065C13.0963 46.7827 13.082 47.1315 13.1912 47.4529C13.3014 47.7716 13.4999 48.0516 13.7866 48.2929C14.0717 48.5305 14.4103 48.7212 14.8024 48.865C15.1972 49.0097 15.5801 49.0834 15.9512 49.0863C16.3233 49.0866 16.6529 49.0001 16.9402 48.8271C17.2284 48.6513 17.4414 48.3754 17.5792 47.9993Z" fill="white"/>
    <path d="M16.4677 62.8054C16.445 63.3334 16.2899 63.7987 16.0025 64.2015C15.7123 64.6013 15.3109 64.9082 14.7984 65.1222C14.2832 65.3331 13.6722 65.4234 12.9655 65.393C12.2588 65.3626 11.6593 65.2188 11.167 64.9616C10.6749 64.7015 10.3044 64.3586 10.0554 63.9327C9.80641 63.5068 9.69321 63.0314 9.71579 62.5063C9.73325 62.1004 9.81541 61.7769 9.96226 61.5359C10.1064 61.2918 10.2708 61.1056 10.4555 60.977C10.6403 60.8456 10.8024 60.7446 10.942 60.6738L10.9453 60.5972L7.70537 60.4577L7.76012 59.1847L16.4793 59.56L16.4259 60.8032L15.4083 60.7594L15.4037 60.8658C15.5395 60.9485 15.6937 61.066 15.8663 61.2184C16.039 61.3681 16.1867 61.5706 16.3093 61.8261C16.432 62.0816 16.4848 62.4081 16.4677 62.8054ZM15.3941 62.4777C15.4099 62.1116 15.3267 61.798 15.1446 61.5371C14.9597 61.2733 14.6969 61.0686 14.3563 60.9231C14.0158 60.7748 13.6156 60.6908 13.1558 60.671C12.7017 60.6514 12.3015 60.6996 11.9553 60.8155C11.6091 60.9314 11.3355 61.1116 11.1344 61.356C10.9334 61.6004 10.8249 61.9085 10.8089 62.2803C10.7924 62.6635 10.878 62.9871 11.0657 63.2511C11.2534 63.5151 11.5162 63.7198 11.854 63.8651C12.1919 64.0076 12.5766 64.0882 13.008 64.1067C13.4451 64.1255 13.841 64.0772 14.1957 63.9616C14.5505 63.8461 14.8355 63.665 15.0508 63.4184C15.2635 63.1688 15.3779 62.8552 15.3941 62.4777Z" fill="white"/>
    <path d="M10.353 78.9026L18.6669 76.2484L19.0541 77.4623L10.7402 80.1164L10.353 78.9026Z" fill="white"/>
    <path d="M12.8477 85.2235L20.7674 81.5568L21.3023 82.7132L13.3827 86.3799L12.8477 85.2235Z" fill="white"/>
    <path d="M27.1049 91.3641C27.4747 91.8538 27.6851 92.366 27.7363 92.9006C27.7875 93.4352 27.6876 93.9558 27.4364 94.4624C27.1853 94.969 26.79 95.4262 26.2506 95.8338C25.7088 96.2431 25.1589 96.5001 24.6009 96.6049C24.0428 96.7097 23.5138 96.6643 23.0138 96.4688C22.5138 96.2733 22.0789 95.9307 21.7092 95.441C21.3394 94.9512 21.129 94.4391 21.0778 93.9045C21.0266 93.3699 21.1277 92.8484 21.3811 92.3401C21.6344 91.8317 22.032 91.3729 22.5737 90.9636C23.1132 90.556 23.6608 90.3007 24.2166 90.1976C24.7725 90.0946 25.3004 90.1408 25.8003 90.3363C26.3003 90.5317 26.7352 90.8744 27.1049 91.3641ZM26.249 92.0055C26.0093 91.6881 25.7269 91.4884 25.4017 91.4066C25.0765 91.3247 24.7368 91.3392 24.3827 91.4501C24.0269 91.5587 23.6812 91.7398 23.3458 91.9933C23.0126 92.245 22.7451 92.5272 22.5433 92.8399C22.3376 93.152 22.2284 93.4766 22.2159 93.8137C22.2034 94.1507 22.3169 94.4779 22.5566 94.7953C22.798 95.115 23.0832 95.3161 23.4124 95.3985C23.7399 95.4786 24.0827 95.4635 24.4408 95.3532C24.7949 95.2423 25.1385 95.061 25.4717 94.8092C25.8072 94.5558 26.0767 94.2738 26.2802 93.9634C26.4819 93.6507 26.5879 93.3267 26.5982 92.9914C26.6067 92.6538 26.4903 92.3252 26.249 92.0055Z" fill="white"/>
    <path d="M35.7766 99.5976L31.6793 104.702L30.7192 103.931L31.3701 103.12L31.3169 103.077C31.0034 103.277 30.6661 103.362 30.3051 103.33C29.9401 103.299 29.6081 103.164 29.3091 102.924C29.247 102.874 29.1757 102.813 29.0951 102.741C29.0123 102.667 28.9492 102.607 28.9058 102.561L29.6687 101.611C29.6997 101.654 29.7608 101.723 29.852 101.818C29.9414 101.916 30.0371 102.005 30.139 102.087C30.3737 102.276 30.623 102.394 30.8869 102.442C31.1468 102.49 31.4001 102.47 31.6469 102.38C31.8919 102.293 32.1033 102.138 32.2812 101.917L34.7833 98.7997L35.7766 99.5976Z" fill="white"/>
    <path d="M44.5622 104.26C45.1359 104.529 45.5691 104.891 45.8616 105.344C46.1504 105.8 46.2976 106.309 46.3033 106.874C46.3089 107.438 46.1727 108.017 45.8945 108.611C45.6126 109.214 45.2507 109.692 44.8088 110.046C44.3656 110.403 43.8774 110.616 43.3441 110.683C42.8109 110.75 42.2651 110.652 41.7068 110.391C41.2566 110.18 40.8944 109.908 40.6203 109.576C40.3449 109.246 40.169 108.881 40.0926 108.482C40.0137 108.081 40.0469 107.671 40.1925 107.253L41.3154 107.779C41.2471 108.086 41.2766 108.392 41.4039 108.696C41.5286 108.999 41.7749 109.237 42.1428 109.409C42.4644 109.56 42.7858 109.607 43.1071 109.55C43.4247 109.495 43.7232 109.343 44.0027 109.095C44.281 108.849 44.5189 108.515 44.7164 108.093C44.9187 107.66 45.0278 107.256 45.0435 106.881C45.0592 106.506 44.9878 106.176 44.8293 105.891C44.6681 105.606 44.4242 105.386 44.0975 105.233C43.8788 105.131 43.662 105.078 43.4472 105.075C43.2286 105.073 43.0233 105.119 42.8313 105.214C42.6368 105.308 42.4651 105.451 42.3162 105.641L41.1933 105.115C41.4139 104.751 41.6988 104.467 42.0481 104.264C42.3974 104.06 42.7874 103.954 43.2179 103.946C43.6459 103.936 44.094 104.041 44.5622 104.26Z" fill="white"/>
    <path d="M53.5293 112.114L54.702 112.098C54.7259 112.251 54.7791 112.402 54.8614 112.551C54.941 112.699 55.0608 112.829 55.221 112.942C55.3812 113.054 55.5917 113.132 55.8525 113.174C56.2086 113.232 56.5188 113.2 56.7831 113.079C57.047 112.961 57.1992 112.777 57.2397 112.527C57.2748 112.312 57.2231 112.125 57.0847 111.967C56.9463 111.809 56.7059 111.659 56.3634 111.517L55.3754 111.115C54.8033 110.881 54.3946 110.597 54.1495 110.264C53.9043 109.93 53.8189 109.535 53.8931 109.078C53.956 108.691 54.1242 108.364 54.3977 108.098C54.668 107.834 55.0161 107.649 55.4421 107.542C55.8653 107.435 56.3376 107.424 56.8592 107.509C57.5826 107.627 58.1478 107.877 58.5548 108.26C58.9613 108.646 59.1699 109.133 59.1807 109.722L57.9351 109.709C57.9109 109.38 57.7942 109.115 57.5851 108.914C57.3755 108.716 57.0814 108.586 56.7029 108.524C56.2907 108.457 55.9473 108.489 55.6728 108.62C55.3978 108.754 55.24 108.946 55.1994 109.195C55.1666 109.397 55.2148 109.579 55.3439 109.741C55.4702 109.903 55.6818 110.044 55.9789 110.164L57.0335 110.581C57.6141 110.817 58.0244 111.108 58.2645 111.455C58.5017 111.802 58.583 112.205 58.5083 112.665C58.4463 113.046 58.2856 113.362 58.026 113.614C57.7664 113.865 57.4358 114.04 57.034 114.139C56.6319 114.24 56.1882 114.252 55.7031 114.173C55.0049 114.059 54.4799 113.819 54.1281 113.451C53.7759 113.085 53.5763 112.64 53.5293 112.114Z" fill="white"/>
    <path d="M71.3258 106.945C71.5552 106.904 71.7668 106.95 71.9607 107.083C72.1552 107.219 72.2731 107.402 72.3145 107.635C72.3554 107.864 72.3078 108.074 72.1718 108.266C72.0362 108.461 71.8538 108.578 71.6244 108.619C71.3951 108.66 71.1832 108.613 70.9888 108.477C70.7948 108.345 70.6774 108.164 70.6365 107.934C70.6091 107.78 70.623 107.632 70.6784 107.49C70.7314 107.35 70.8141 107.232 70.9265 107.134C71.0389 107.036 71.172 106.973 71.3258 106.945Z" fill="white"/>
    <path d="M90.5377 103.148L88.574 99.794L89.6734 99.1499L92.9806 104.798L91.9254 105.417L91.3871 104.497L91.3172 104.538C91.3624 104.913 91.2997 105.273 91.1289 105.617C90.9557 105.962 90.6571 106.259 90.2331 106.507C89.8482 106.733 89.4638 106.849 89.0799 106.857C88.6973 106.867 88.3338 106.761 87.9893 106.538C87.6448 106.315 87.3362 105.97 87.0635 105.505L84.9599 101.912L86.0592 101.268L88.0853 104.728C88.325 105.138 88.619 105.395 88.9671 105.5C89.3168 105.608 89.6778 105.553 90.0504 105.335C90.3053 105.186 90.4998 104.998 90.6337 104.771C90.7652 104.546 90.8261 104.293 90.8164 104.012C90.8057 103.735 90.7128 103.447 90.5377 103.148Z" fill="white"/>
    <path d="M101.411 86.6022L107.702 89.2419L106.87 90.2632L102.334 88.2224L102.293 88.272L105.208 92.3058L104.377 93.327L99.8595 91.2964L99.8191 91.346L102.725 95.3564L101.894 96.3777L98.0322 90.7535L98.8526 89.7454L103.356 91.6987L103.418 91.6227L100.593 87.607L101.411 86.6022Z" fill="white"/>
    <path d="M106.301 74.5457C106.496 73.964 106.8 73.5013 107.213 73.1574C107.625 72.8136 108.111 72.6025 108.671 72.5241C109.231 72.4457 109.831 72.5143 110.472 72.7299C111.116 72.9464 111.638 73.2556 112.039 73.6575C112.441 74.0593 112.702 74.5218 112.823 75.045C112.944 75.5683 112.906 76.1207 112.711 76.7024C112.515 77.284 112.211 77.7467 111.799 78.0906C111.386 78.4344 110.899 78.6451 110.336 78.7226C109.774 78.8001 109.171 78.7306 108.527 78.514C107.887 78.2984 107.367 77.9901 106.968 77.5892C106.569 77.1883 106.31 76.7262 106.189 76.203C106.068 75.6797 106.105 75.1273 106.301 74.5457ZM107.313 74.8908C107.187 75.2678 107.181 75.6137 107.297 75.9285C107.413 76.2432 107.617 76.5156 107.908 76.7455C108.199 76.9781 108.543 77.1615 108.942 77.2956C109.337 77.4287 109.721 77.4905 110.093 77.4807C110.467 77.4746 110.796 77.3816 111.082 77.2018C111.367 77.022 111.573 76.7436 111.7 76.3667C111.827 75.987 111.832 75.6379 111.714 75.3196C111.596 75.0039 111.39 74.7293 111.097 74.4958C110.805 74.2658 110.462 74.0843 110.066 73.9511C109.667 73.817 109.283 73.7535 108.912 73.7605C108.54 73.7703 108.213 73.8655 107.93 74.0462C107.647 74.2296 107.441 74.5111 107.313 74.8908Z" fill="white"/>
    <path d="M108.029 60.0602C108.038 59.5319 108.18 59.0625 108.457 58.6522C108.736 58.2447 109.129 57.9272 109.636 57.6996C110.145 57.4749 110.754 57.3683 111.461 57.3798C112.168 57.3913 112.771 57.519 113.27 57.7629C113.769 58.0097 114.149 58.3426 114.409 58.7617C114.669 59.1807 114.795 59.653 114.787 60.1785C114.78 60.5847 114.706 60.9103 114.566 61.1552C114.429 61.403 114.269 61.5936 114.088 61.727C113.907 61.8633 113.747 61.9687 113.61 62.0432L113.609 62.1199L116.851 62.1726L116.83 63.4465L108.104 63.3047L108.124 62.0606L109.143 62.0771L109.145 61.9706C109.007 61.8917 108.849 61.7783 108.673 61.6305C108.496 61.4856 108.343 61.2871 108.214 61.0349C108.084 60.7828 108.023 60.4579 108.029 60.0602ZM109.111 60.3591C109.105 60.7255 109.197 61.0367 109.386 61.2926C109.578 61.5515 109.846 61.749 110.19 61.8853C110.534 62.0245 110.937 62.0978 111.397 62.1052C111.851 62.1126 112.25 62.0538 112.593 61.9286C112.936 61.8035 113.205 61.6161 113.399 61.3664C113.594 61.1167 113.694 60.8057 113.7 60.4336C113.706 60.0502 113.612 59.729 113.417 59.4701C113.223 59.2112 112.954 59.0137 112.613 58.8774C112.271 58.744 111.884 58.6738 111.453 58.6668C111.015 58.6597 110.621 58.7186 110.269 58.8436C109.918 58.9686 109.638 59.1572 109.429 59.4096C109.223 59.6648 109.117 59.9813 109.111 60.3591Z" fill="white"/>
    <path d="M113.711 43.8051L105.471 46.6808L105.052 45.4777L113.292 42.602L113.711 43.8051Z" fill="white"/>
    <path d="M111.047 37.5532L103.229 41.4305L102.663 40.2888L110.481 36.4115L111.047 37.5532Z" fill="white"/>
    <path d="M96.6325 31.7964C96.2498 31.3168 96.0257 30.8104 95.9602 30.2774C95.8948 29.7444 95.9808 29.2213 96.2182 28.7081C96.4557 28.1949 96.8386 27.7274 97.367 27.3055C97.8976 26.8818 98.4404 26.6102 98.9955 26.4905C99.5505 26.3708 100.081 26.402 100.586 26.5841C101.091 26.7661 101.535 27.097 101.917 27.5766C102.3 28.0563 102.524 28.5626 102.59 29.0957C102.655 29.6287 102.568 30.1527 102.328 30.6676C102.089 31.1826 101.703 31.6519 101.173 32.0755C100.644 32.4974 100.104 32.7673 99.551 32.8852C98.9981 33.0031 98.4692 32.971 97.9641 32.789C97.4591 32.6069 97.0152 32.2761 96.6325 31.7964ZM97.471 31.1323C97.7191 31.4432 98.0067 31.6353 98.334 31.7084C98.6613 31.7815 99.0005 31.7579 99.3515 31.6376C99.7043 31.5195 100.045 31.3293 100.374 31.0669C100.7 30.8063 100.96 30.5171 101.153 30.1991C101.35 29.8816 101.451 29.5542 101.454 29.2169C101.458 28.8797 101.335 28.5556 101.087 28.2447C100.838 27.9316 100.547 27.7382 100.216 27.6647C99.8863 27.5933 99.544 27.6176 99.189 27.7374C98.838 27.8578 98.4993 28.0482 98.1729 28.3088C97.8444 28.5711 97.5825 28.8602 97.3874 29.1759C97.1941 29.4939 97.0968 29.8206 97.0955 30.1561C97.096 30.4938 97.2212 30.8192 97.471 31.1323Z" fill="white"/>
    <path d="M87.7435 23.7978L91.7028 18.5856L92.6832 19.3309L92.0542 20.1589L92.1085 20.2001C92.4166 19.9918 92.7515 19.8985 93.1132 19.9201C93.4789 19.9412 93.8144 20.0678 94.1197 20.2999C94.1831 20.348 94.256 20.407 94.3385 20.4769C94.4232 20.5485 94.4879 20.6066 94.5325 20.6512L93.7953 21.6217C93.7632 21.5794 93.7003 21.512 93.6066 21.4193C93.5146 21.3244 93.4165 21.2374 93.3125 21.1583C93.0728 20.976 92.8204 20.8645 92.5553 20.8236C92.2943 20.7821 92.0416 20.8095 91.7973 20.9057C91.5547 20.9996 91.3475 21.1597 91.1756 21.3859L88.7578 24.5689L87.7435 23.7978Z" fill="white"/>
    <path d="M78.8359 19.3718C78.2552 19.1185 77.8125 18.7689 77.5079 18.323C77.2071 17.8756 77.0463 17.37 77.0255 16.8062C77.0048 16.2423 77.1255 15.6596 77.3877 15.058C77.6533 14.4486 78.0023 13.9608 78.4346 13.5946C78.8681 13.2258 79.3505 13.0007 79.8818 12.9194C80.413 12.8381 80.9612 12.9207 81.5263 13.1672C81.982 13.366 82.3513 13.6278 82.6342 13.9527C82.9183 14.275 83.1039 14.6349 83.191 15.0324C83.2806 15.431 83.2583 15.8413 83.124 16.2631L81.9874 15.7673C82.0475 15.4588 82.0099 15.1541 81.8745 14.8533C81.7417 14.5536 81.4891 14.3226 81.1167 14.1601C80.7912 14.0182 80.4686 13.9797 80.1489 14.0448C79.833 14.1085 79.5386 14.2683 79.2659 14.5244C78.9943 14.7778 78.7654 15.1181 78.5792 15.5452C78.3885 15.9827 78.2903 16.3893 78.2847 16.765C78.279 17.1406 78.3592 17.4685 78.5253 17.7486C78.694 18.0299 78.9437 18.2426 79.2744 18.3869C79.4958 18.4834 79.7139 18.5305 79.9287 18.5282C80.1473 18.5244 80.3513 18.4723 80.5407 18.372C80.7326 18.2729 80.9005 18.1261 81.0441 17.9315L82.1808 18.4273C81.97 18.7972 81.6927 19.0884 81.349 19.3011C81.0053 19.5138 80.6183 19.6302 80.1881 19.6502C79.7605 19.6713 79.3098 19.5785 78.8359 19.3718Z" fill="white"/>
    <path d="M69.6614 11.7612L68.4896 11.8091C68.4616 11.6562 68.4044 11.5066 68.3181 11.3602C68.2346 11.2142 68.1113 11.0871 67.9482 10.979C67.785 10.871 67.5726 10.7992 67.3108 10.7638C66.9532 10.7155 66.6439 10.7554 66.383 10.8835C66.1224 11.0088 65.9751 11.1967 65.9413 11.4473C65.912 11.664 65.9686 11.8494 66.1112 12.0035C66.2538 12.1575 66.4982 12.3009 66.8443 12.4337L67.8427 12.8096C68.4209 13.0282 68.837 13.3009 69.091 13.6277C69.345 13.9544 69.441 14.3473 69.379 14.8062C69.3265 15.1947 69.1671 15.5257 68.9007 15.7993C68.6376 16.0705 68.2946 16.2649 67.8716 16.3826C67.4514 16.5006 66.9795 16.5243 66.4559 16.4534C65.7296 16.3552 65.1579 16.1202 64.7408 15.7485C64.3242 15.3739 64.1026 14.8924 64.076 14.304L65.3215 14.2833C65.3546 14.6117 65.4783 14.8735 65.6927 15.0688C65.9075 15.2612 66.2049 15.3832 66.585 15.4346C66.9988 15.4905 67.3412 15.4494 67.6122 15.3112C67.8835 15.1701 68.0361 14.9743 68.07 14.7238C68.0974 14.521 68.0444 14.3404 67.911 14.1819C67.7804 14.0238 67.565 13.8886 67.2649 13.7763L66.1994 13.3871C65.6128 13.1673 65.1948 12.8872 64.9456 12.5467C64.6991 12.2067 64.6071 11.8058 64.6695 11.3441C64.7212 10.9612 64.8735 10.6406 65.1262 10.3824C65.379 10.1242 65.7049 9.94034 66.1038 9.83088C66.5031 9.71861 66.9463 9.69541 67.4333 9.76128C68.1343 9.85608 68.6656 10.0827 69.0271 10.4412C69.389 10.7969 69.6004 11.2369 69.6614 11.7612Z" fill="white"/>
    <rect x="50.709" y="41.5" width="23" height="43" rx="11.5" stroke="white" stroke-width="3"/>
    <circle cx="62.209" cy="73" r="6" fill="white"/>
</svg>
